<svg id="Layer_1" data-name="Layer 1" xmlns="http://www.w3.org/2000/svg" viewBox="0 0 309 141"><defs><style>.cls-1{fill:#fff;}.cls-2{fill:#94c940;fill-rule:evenodd;}</style></defs><path class="cls-1" d="M22.81,107.13h-7l1.91-1.24L57.94,12.64l-1.51-1.36H81.49l-1.37,1.36,15,31c-4.86,2.92-11.19,6-17.78,9.28l-9.1-18.36L54.51,66a45.33,45.33,0,0,0-8.46,7.76C38.57,83,38.91,88.2,36.26,97.3Zm143.36,0h-24l1.91-1.24V12.64l-1.64-1.36h23.28l-1.51,1.36v93.25Zm128.22,0H271.93l1.92-1.24V47l-34.1,60.66L205.8,48v57.92l1.91,1.24H186.49l1.92-1.24V12.64l-1.51-1.36h25.47l-2.19,1.64,30.67,56.14,29.58-56.14-2.19-1.64h26l-1.64,1.36v93.25Zm-167.3,0H100.8l1.92-1.24L91,83c6.74-6.86,10.92-13.82,13.21-20.48l21,43.42Z"/><path class="cls-1" d="M287,128.88V118h-5v-2.3h12.27V118h-5v10.84Zm-18.39-9.61v9.61h-2.19V117a1.5,1.5,0,0,1,.32-1,1.06,1.06,0,0,1,.86-.37,1.16,1.16,0,0,1,.48.11,1.65,1.65,0,0,1,.49.36l9.27,9.2v-9.61H280v12a1.47,1.47,0,0,1-.31,1,1,1,0,0,1-.83.37,1.51,1.51,0,0,1-1.05-.49Zm-12.43,3.9v-1.93h7.29v1.93Zm-4,5.71V115.74H264V118H254.5v8.55H264v2.29Zm-4.32,0-2.51-9.23-3.73,8.55a1.79,1.79,0,0,1-.48.64,1,1,0,0,1-.69.22,1.21,1.21,0,0,1-1.18-.86l-3.7-8.55-2.52,9.23h-2.26l3.38-12.36a1.09,1.09,0,0,1,1.14-.94,1.26,1.26,0,0,1,.68.2,1.21,1.21,0,0,1,.48.58l4.05,9.29,4.05-9.29a1.13,1.13,0,0,1,1.1-.78,1.1,1.1,0,0,1,1.1.94l3.36,12.36Zm-26.65-5.71v-1.93h7.28v1.93Zm-4,5.71V115.74H229V118h-9.45v8.55H229v2.29Zm-10.58,0a6.26,6.26,0,0,1-2.54-.51,6.21,6.21,0,0,1-3.36-3.53,7.27,7.27,0,0,1-.48-2.66,7,7,0,0,1,.48-2.64,5.73,5.73,0,0,1,1.33-2,6.17,6.17,0,0,1,2-1.31,7,7,0,0,1,2.54-.46h7.12V118h-7.12a4.2,4.2,0,0,0-1.64.31,4,4,0,0,0-1.29.88,4.2,4.2,0,0,0-.85,1.34,4.74,4.74,0,0,0-.31,1.72,4.81,4.81,0,0,0,.31,1.71,4.23,4.23,0,0,0,.85,1.37,3.77,3.77,0,0,0,1.29.89,4,4,0,0,0,1.64.33h5.62v-3.42H206.4v-1.93h8.24v7.64Zm-9,0-2-3.3h-6.21l1.08-1.87h4l-2.93-4.91-6,10.08h-2.62l7.55-12.58a1.8,1.8,0,0,1,.47-.54,1.09,1.09,0,0,1,.65-.2,1.07,1.07,0,0,1,.65.2,1.92,1.92,0,0,1,.46.54l7.57,12.58Zm-27.88-9.61v9.61h-2.19V117a1.5,1.5,0,0,1,.31-1,1.06,1.06,0,0,1,.86-.37,1.17,1.17,0,0,1,.49.11,1.65,1.65,0,0,1,.49.36l9.27,9.2v-9.61h2.19v12a1.47,1.47,0,0,1-.32,1,1,1,0,0,1-.82.37,1.51,1.51,0,0,1-1-.49ZM163,128.88l-2-3.3h-6.22l1.08-1.87h4L157,118.8l-6,10.08h-2.62L156,116.3a1.8,1.8,0,0,1,.47-.54,1.12,1.12,0,0,1,.66-.2,1.06,1.06,0,0,1,.64.2,1.77,1.77,0,0,1,.46.54l7.57,12.58Zm-18,0-2.51-9.23-3.73,8.55a1.79,1.79,0,0,1-.48.64,1.06,1.06,0,0,1-.69.22,1.22,1.22,0,0,1-1.18-.86l-3.7-8.55-2.52,9.23h-2.26l3.39-12.36a1.08,1.08,0,0,1,1.13-.94,1.28,1.28,0,0,1,.68.2,1.21,1.21,0,0,1,.48.58l4,9.29,4.05-9.29a1.13,1.13,0,0,1,1.1-.78,1.1,1.1,0,0,1,1.1.94l3.37,12.36Zm-30.48,0V118h-5v-2.3h12.28V118h-5v10.84Zm-13.72,0a6.26,6.26,0,0,1-2.54-.51,6.21,6.21,0,0,1-3.36-3.53,7.27,7.27,0,0,1-.48-2.66,7,7,0,0,1,.48-2.64,5.73,5.73,0,0,1,1.33-2,6.17,6.17,0,0,1,2-1.31,7,7,0,0,1,2.54-.46h7.12V118h-7.12a4.2,4.2,0,0,0-1.64.31A3.9,3.9,0,0,0,97,120.57a4.74,4.74,0,0,0-.31,1.72A4.81,4.81,0,0,0,97,124a4.07,4.07,0,0,0,.85,1.37,3.77,3.77,0,0,0,1.29.89,4,4,0,0,0,1.64.33h7.12v2.29Zm-16.3-5.71v-1.93H91.8v1.93Zm-4,5.71V115.74H92.29V118H82.83v8.55h9.48v2.29Zm-14,0v-2.29h4.81a5,5,0,0,0,3.31-.89,3.54,3.54,0,0,0,1-2.8v-7.16H78v7.16a5.86,5.86,0,0,1-1.59,4.52c-1.06,1-2.74,1.46-5,1.46Zm-8.12-2.29a4.1,4.1,0,0,0,1.66-.33,3.76,3.76,0,0,0,1.31-.89,3.94,3.94,0,0,0,.86-1.37,4.6,4.6,0,0,0,.31-1.71,4.52,4.52,0,0,0-.31-1.71,3.85,3.85,0,0,0-.86-1.35,4,4,0,0,0-1.31-.88A4.27,4.27,0,0,0,58.4,118H55.2a4.15,4.15,0,0,0-1.63.31,4.09,4.09,0,0,0-1.3.88,4.2,4.2,0,0,0-.85,1.34,4.74,4.74,0,0,0-.3,1.72,4.8,4.8,0,0,0,.3,1.71,4.23,4.23,0,0,0,.85,1.37,3.81,3.81,0,0,0,1.3.89,4,4,0,0,0,1.63.33Zm-3.2,2.29a6.25,6.25,0,0,1-5.9-4,7.27,7.27,0,0,1-.48-2.66,7,7,0,0,1,.48-2.64,5.62,5.62,0,0,1,1.34-2,6,6,0,0,1,2-1.31,7,7,0,0,1,2.54-.46h3.2a7.09,7.09,0,0,1,2.61.47,6,6,0,0,1,2,1.32,5.89,5.89,0,0,1,1.32,2,6.89,6.89,0,0,1,.47,2.61,7.48,7.48,0,0,1-.47,2.66A6.6,6.6,0,0,1,63,127a6.26,6.26,0,0,1-2,1.41,6.39,6.39,0,0,1-2.58.51Zm-11,0-3.32-3.65H36v-2h5.48a2.46,2.46,0,0,0,1.88-.68,2.78,2.78,0,0,0,.63-2,2.53,2.53,0,0,0-.66-1.91,2.62,2.62,0,0,0-1.85-.62H34.3v10.84H32V115.74h9.44a5.48,5.48,0,0,1,2,.34,4,4,0,0,1,1.5,1,4,4,0,0,1,.94,1.51,5.63,5.63,0,0,1,.33,2,5,5,0,0,1-.72,2.76,4,4,0,0,1-2,1.6l4,4Zm-24.44-3.65V123h5.28a2.51,2.51,0,0,0,1.88-.69,2.74,2.74,0,0,0,0-3.61,2.54,2.54,0,0,0-1.88-.67h-7v10.84H15.82V115.74h9.24a5.65,5.65,0,0,1,2,.34,4.08,4.08,0,0,1,1.51.94,4,4,0,0,1,.94,1.47,5.7,5.7,0,0,1,.32,2,5.78,5.78,0,0,1-.32,2,4.43,4.43,0,0,1-.94,1.51,4.16,4.16,0,0,1-1.51,1,5.44,5.44,0,0,1-2,.35Z"/><path class="cls-2" d="M44.13,101.88C56.43,98.32,74.25,93.16,84,85.44c18.21-14.4,20.9-32.87,18.44-43.86-7.71,9.17-40.6,17.81-53.31,32.93-6.83,8.12-7.56,16.26-10.07,24.35-1.44,2.47-11.25,8.57-11.95,8.57L33,106.05l4.22-2.73C57.15,89.55,64,83.53,77.23,65.48c-1.5,3.81-4.15,10.5-7.11,14.19-.68.85,10.44-3.8,9.56-3-5.3,4.87-12.57,6.49-13,7a122.55,122.55,0,0,1-22.53,18.23"/></svg>